HIERARCHY
ROOT Hips
{
    OFFSET   0.000000   0.000000   0.000000
    CHANNELS 6 Xposition Yposition Zposition Zrotation Xrotation Yrotation
    JOINT Chest
    {
        OFFSET   0.000000   8.007230   0.000000
        CHANNELS 3 Zrotation Xrotation Yrotation
        JOINT Chest2
        {
            OFFSET   0.000000  22.077100   0.000000
            CHANNELS 3 Zrotation Xrotation Yrotation
            JOINT Neck
            {
                OFFSET   0.000000  23.254800  -0.000021
                CHANNELS 3 Zrotation Xrotation Yrotation
                JOINT Head
                {
                    OFFSET   0.000000  14.370000   1.956610
                    CHANNELS 3 Zrotation Xrotation Yrotation
                    End Site
                    {
                        OFFSET   0.000000  19.566000   0.000000
                    }
                }
            }
            JOINT LeftCollar
            {
                OFFSET   3.911900  19.017000  -0.467063
                CHANNELS 3 Zrotation Xrotation Yrotation
                JOINT LeftShoulder
                {
                    OFFSET  10.383700   0.000000   0.000000
                    CHANNELS 3 Zrotation Xrotation Yrotation
                    JOINT LeftElbow
                    {
                        OFFSET  26.662100   0.001529   0.000325
                        CHANNELS 3 Zrotation Xrotation Yrotation
                        JOINT LeftWrist
                        {
                            OFFSET  28.869000  -0.000011  -0.000096
                            CHANNELS 3 Zrotation Xrotation Yrotation
                            JOINT LeftFinger0
                            {
                                OFFSET   2.044650  -2.323460   3.252850
                                CHANNELS 3 Zrotation Xrotation Yrotation
                                JOINT LeftFinger01
                                {
                                    OFFSET   3.088130   0.000000   0.000000
                                    CHANNELS 3 Zrotation Xrotation Yrotation
                                    JOINT LeftFinger02
                                    {
                                        OFFSET   2.639460   0.000000   0.000000
                                        CHANNELS 3 Zrotation Xrotation Yrotation
                                        End Site
                                        {
                                            OFFSET   2.582190   0.000000   0.000000
                                        }
                                    }
                                }
                            }
                            JOINT LeftFinger1
                            {
                                OFFSET   8.364480   0.000000   3.252850
                                CHANNELS 3 Zrotation Xrotation Yrotation
                                JOINT LeftFinger11
                                {
                                    OFFSET   4.646930   0.000000   0.000000
                                    CHANNELS 3 Zrotation Xrotation Yrotation
                                    JOINT LeftFinger12
                                    {
                                        OFFSET   2.323460   0.000000   0.000000
                                        CHANNELS 3 Zrotation Xrotation Yrotation
                                        End Site
                                        {
                                            OFFSET   2.273050   0.000000   0.000000
                                        }
                                    }
                                }
                            }
                            JOINT LeftFinger2
                            {
                                OFFSET   8.364480   0.000016   1.078090
                                CHANNELS 3 Zrotation Xrotation Yrotation
                                JOINT LeftFinger21
                                {
                                    OFFSET   5.111620   0.000000   0.000000
                                    CHANNELS 3 Zrotation Xrotation Yrotation
                                    JOINT LeftFinger22
                                    {
                                        OFFSET   2.788160   0.000017   0.000000
                                        CHANNELS 3 Zrotation Xrotation Yrotation
                                        End Site
                                        {
                                            OFFSET   2.727660   0.000000   0.000000
                                        }
                                    }
                                }
                            }
                            JOINT LeftFinger3
                            {
                                OFFSET   7.899780   0.000015  -1.078090
                                CHANNELS 3 Zrotation Xrotation Yrotation
                                JOINT LeftFinger31
                                {
                                    OFFSET   4.646920   0.000000   0.000000
                                    CHANNELS 3 Zrotation Xrotation Yrotation
                                    JOINT LeftFinger32
                                    {
                                        OFFSET   2.323470   0.000000   0.000000
                                        CHANNELS 3 Zrotation Xrotation Yrotation
                                        End Site
                                        {
                                            OFFSET   2.273050   0.000000   0.000000
                                        }
                                    }
                                }
                            }
                            JOINT LeftFinger4
                            {
                                OFFSET   7.435090   0.000000  -3.252850
                                CHANNELS 3 Zrotation Xrotation Yrotation
                                JOINT LeftFinger41
                                {
                                    OFFSET   3.717550   0.000000   0.000000
                                    CHANNELS 3 Zrotation Xrotation Yrotation
                                    JOINT LeftFinger42
                                    {
                                        OFFSET   1.858760   0.000000   0.000000
                                        CHANNELS 3 Zrotation Xrotation Yrotation
                                        End Site
                                        {
                                            OFFSET   1.818440   0.000000   0.000000
                                        }
                                    }
                                }
                            }
                        }
                    }
                }
            }
            JOINT RightCollar
            {
                OFFSET  -3.911900  19.017000  -0.467062
                CHANNELS 3 Zrotation Xrotation Yrotation
                JOINT RightShoulder
                {
                    OFFSET -10.383700   0.000015   0.000000
                    CHANNELS 3 Zrotation Xrotation Yrotation
                    JOINT RightElbow
                    {
                        OFFSET -26.662100   0.001341   0.000385
                        CHANNELS 3 Zrotation Xrotation Yrotation
                        JOINT RightWrist
                        {
                            OFFSET -28.869000   0.000025  -0.000080
                            CHANNELS 3 Zrotation Xrotation Yrotation
                            JOINT RightFinger0
                            {
                                OFFSET  -2.044650  -2.323490   3.252850
                                CHANNELS 3 Zrotation Xrotation Yrotation
                                JOINT RightFinger01
                                {
                                    OFFSET  -3.088130   0.000000   0.000000
                                    CHANNELS 3 Zrotation Xrotation Yrotation
                                    JOINT RightFinger02
                                    {
                                        OFFSET  -2.639460   0.000000   0.000000
                                        CHANNELS 3 Zrotation Xrotation Yrotation
                                        End Site
                                        {
                                            OFFSET  -2.582190   0.000000   0.000000
                                        }
                                    }
                                }
                            }
                            JOINT RightFinger1
                            {
                                OFFSET  -8.364480   0.000000   3.252850
                                CHANNELS 3 Zrotation Xrotation Yrotation
                                JOINT RightFinger11
                                {
                                    OFFSET  -4.646930   0.000000   0.000000
                                    CHANNELS 3 Zrotation Xrotation Yrotation
                                    JOINT RightFinger12
                                    {
                                        OFFSET  -2.323470   0.000000   0.000000
                                        CHANNELS 3 Zrotation Xrotation Yrotation
                                        End Site
                                        {
                                            OFFSET  -2.273050   0.000000   0.000000
                                        }
                                    }
                                }
                            }
                            JOINT RightFinger2
                            {
                                OFFSET  -8.364480   0.000000   1.078090
                                CHANNELS 3 Zrotation Xrotation Yrotation
                                JOINT RightFinger21
                                {
                                    OFFSET  -5.111610   0.000000   0.000000
                                    CHANNELS 3 Zrotation Xrotation Yrotation
                                    JOINT RightFinger22
                                    {
                                        OFFSET  -2.788160   0.000000   0.000000
                                        CHANNELS 3 Zrotation Xrotation Yrotation
                                        End Site
                                        {
                                            OFFSET  -2.727660   0.000000   0.000000
                                        }
                                    }
                                }
                            }
                            JOINT RightFinger3
                            {
                                OFFSET  -7.899780   0.000000  -1.078090
                                CHANNELS 3 Zrotation Xrotation Yrotation
                                JOINT RightFinger31
                                {
                                    OFFSET  -4.646920   0.000000   0.000000
                                    CHANNELS 3 Zrotation Xrotation Yrotation
                                    JOINT RightFinger32
                                    {
                                        OFFSET  -2.323470   0.000000   0.000000
                                        CHANNELS 3 Zrotation Xrotation Yrotation
                                        End Site
                                        {
                                            OFFSET  -2.273050   0.000000   0.000000
                                        }
                                    }
                                }
                            }
                            JOINT RightFinger4
                            {
                                OFFSET  -7.435090   0.000000  -3.252850
                                CHANNELS 3 Zrotation Xrotation Yrotation
                                JOINT RightFinger41
                                {
                                    OFFSET  -3.717550   0.000000   0.000000
                                    CHANNELS 3 Zrotation Xrotation Yrotation
                                    JOINT RightFinger42
                                    {
                                        OFFSET  -1.858770   0.000000   0.000000
                                        CHANNELS 3 Zrotation Xrotation Yrotation
                                        End Site
                                        {
                                            OFFSET  -1.818440   0.000000   0.000000
                                        }
                                    }
                                }
                            }
                        }
                    }
                }
            }
        }
    }
    JOINT LeftHip
    {
        OFFSET   9.783010   0.000000   0.000000
        CHANNELS 3 Zrotation Xrotation Yrotation
        JOINT LeftKnee
        {
            OFFSET   0.000070 -41.789100   0.000028
            CHANNELS 3 Zrotation Xrotation Yrotation
            JOINT LeftAnkle
            {
                OFFSET   0.000087 -41.133200  -0.000100
                CHANNELS 3 Zrotation Xrotation Yrotation
                JOINT LeftToe
                {
                    OFFSET   0.000000  -6.358960  14.674500
                    CHANNELS 3 Zrotation Xrotation Yrotation
                    End Site
                    {
                        OFFSET   0.000000   0.000000   3.913200
                    }
                }
            }
        }
    }
    JOINT RightHip
    {
        OFFSET  -9.783020   0.000000   0.000000
        CHANNELS 3 Zrotation Xrotation Yrotation
        JOINT RightKnee
        {
            OFFSET   0.000044 -41.789100  -0.000870
            CHANNELS 3 Zrotation Xrotation Yrotation
            JOINT RightAnkle
            {
                OFFSET  -0.000090 -41.133200  -0.000245
                CHANNELS 3 Zrotation Xrotation Yrotation
                JOINT RightToe
                {
                    OFFSET   0.000000  -6.358960  14.674500
                    CHANNELS 3 Zrotation Xrotation Yrotation
                    End Site
                    {
                        OFFSET   0.000000   0.000000   3.913200
                    }
                }
            }
        }
    }
}
MOTION
Frames: 5
Frame Time:   0.016667
 -0.856949  89.513300  -2.858370  -0.189822  -1.110510   2.051230   0.554503   2.109070  -0.484931   1.128000   4.213250  -0.991286  -1.385160   0.545208   0.023336  -2.272880   1.103500   6.092780  -5.703960   2.666460   7.915520 -77.466800   5.839300   1.278810   1.413520   8.704160 -18.193000   8.739760  -4.532910  -0.838442  41.405900  34.378700 -54.507100 -31.048600  -0.001158  -0.000624 -10.522900   0.003226  -0.001033 -34.431700  -1.257920   1.834200 -28.188700   0.005117  -0.002878 -19.732100  -0.003429  -0.002871 -29.985700  -3.743700   6.443970 -45.292100  -0.001210  -0.002119 -30.166300  -0.002923   0.004219 -28.193500  -4.008980   7.437230 -35.623900  -0.011980  -0.009376 -23.725600  -0.013017  -0.005090 -32.269700  -4.527710   7.133250 -48.827600  -0.000710  -0.011599 -32.519100  -0.000396  -0.009343   9.544530   4.463330   6.421340  66.606500   1.445430  -0.938268   3.160860   1.492420  18.882700 -17.993500  -7.221950   6.960480 -41.198200  39.459800  80.848000  28.188800   0.004869  -0.002846   9.094410   0.001000  -0.011098  45.534400  -0.001512  -0.001421  37.255000  -0.006741   0.007054  27.195000  -0.000446   0.010611  41.136200  -0.865959  -0.995587  54.382000   0.000000  -0.006552  37.621700   0.002902   0.010125  50.080000  -1.002610  -0.848920  54.290100  -0.000694  -0.006761  39.799100   0.008810   0.008173  53.113400  -5.787250  -4.328670  79.998400   0.010394  -0.001132  53.279000   0.000552   0.009667   2.065310   2.304540  -0.648324   0.480793   1.131310  10.572100  -3.434850  -2.313140  -4.745720   0.000000   0.000000  -0.000000  -1.649210   3.365200  -2.997290   2.958390   0.772495 -16.042100  -0.448337  -3.292860  -3.321400   0.000000   0.000000  -0.000000
 -0.849590  89.513300  -2.853760  -0.189455  -1.110280   2.055790   0.554391   2.108830  -0.484911   1.127780   4.212770  -0.991244  -1.385160   0.552639   0.023351  -2.272680   1.118920   6.083890  -5.703740   2.666370   7.915870 -77.471900   5.865230   1.247430   1.409160   8.675680 -18.139900   8.732840  -4.520240  -0.841792  41.407300  34.390000 -54.516600 -31.057500  -0.001161  -0.000625 -10.528100   0.003240  -0.001046 -34.434000  -1.257550   1.833570 -28.190200   0.005165  -0.002905 -19.733100  -0.003443  -0.002898 -29.987000  -3.743780   6.444220 -45.295300  -0.001213  -0.002084 -30.167700  -0.002946   0.004289 -28.193500  -4.008740   7.435950 -35.635200  -0.012035  -0.009423 -23.733100  -0.013043  -0.005092 -32.272500  -4.527730   7.131920 -48.831700  -0.000671  -0.011657 -32.521900  -0.000391  -0.009388   9.548270   4.453500   6.428690  66.606800   1.459200  -0.939513   3.152600   1.491860  18.864900 -17.977900  -7.199440   6.950040 -41.202300  39.460800  80.853200  28.188800   0.004876  -0.002823   9.094410   0.001001  -0.011099  45.534300  -0.001504  -0.001418  37.255000  -0.006751   0.007059  27.195000  -0.000455   0.010615  41.132200  -0.867213  -0.995587  54.382000   0.000000  -0.006574  37.620600   0.002879   0.010138  50.073800  -1.007530  -0.848922  54.290500  -0.000712  -0.006761  39.798000   0.008807   0.008149  53.116800  -5.788650  -4.328680  80.003600   0.010373  -0.001148  53.282500   0.000506   0.009699   2.065670   2.314860  -0.654574   0.477246   1.116940  10.576900  -3.430620  -2.314190  -4.748180   0.000000   0.000000   0.000000  -1.648200   3.367320  -3.008720   2.957960   0.770761 -16.041600  -0.448528  -3.291490  -3.316900  -0.000000   0.000000   0.000000
 -0.837522  89.513200  -2.845670  -0.189041  -1.110040   2.062770   0.554274   2.108590  -0.484773   1.127540   4.212290  -0.990956  -1.385150   0.565329   0.023366  -2.272370   1.145060   6.070140  -5.703520   2.666270   7.916230 -77.480800   5.922500   1.195510   1.401470   8.624120 -18.063600   8.720580  -4.507570  -0.848316  41.408800  34.401300 -54.526200 -31.066400  -0.001173  -0.000631 -10.533200   0.003271  -0.001068 -34.441700  -1.254970   1.829170 -28.196000   0.005279  -0.002966 -19.737200  -0.003478  -0.002956 -29.992500  -3.743960   6.444480 -45.305300  -0.001222  -0.002014 -30.173300  -0.003001   0.004451 -28.194200  -4.007060   7.427000 -35.658200  -0.012151  -0.009523 -23.748300  -0.013106  -0.005093 -32.283100  -4.527820   7.122600 -48.847500  -0.000581  -0.011778 -32.532400  -0.000381  -0.009482   9.556930   4.431850   6.439150  66.607500   1.492770  -0.946244   3.131050   1.487030  18.847100 -17.942600  -7.148640   6.929360 -41.206500  39.461800  80.858300  28.188800   0.004883  -0.002759   9.094410   0.001003  -0.011102  45.533900  -0.001496  -0.001414  37.255000  -0.006779   0.007069  27.195000  -0.000481   0.010629  41.103900  -0.868466  -0.995586  54.382000   0.000000  -0.006628  37.612600   0.002826   0.010166  50.030400  -1.012450  -0.848924  54.292900  -0.000758  -0.006763  39.790000   0.008799   0.008094  53.120200  -5.790060  -4.328690  80.008900   0.010326  -0.001182  53.285900   0.000392   0.009779   2.066270   2.331480  -0.664828   0.470189   1.094460  10.585600  -3.423120  -2.315230  -4.752800  -0.000000   0.000000   0.000000  -1.646640   3.373580  -3.025600   2.957080   0.766005 -16.041100  -0.448520  -3.290120  -3.308910   0.000000   0.000000   0.000000
 -0.828260  89.513200  -2.838400  -0.190646  -1.110790   2.067850   0.555415   2.109870  -0.483191   1.129770   4.214850  -0.987839  -1.385130   0.576510   0.023346  -2.272210   1.167650   6.060490  -5.703590   2.666280   7.916150 -77.491600   5.996830   1.152890   1.399630   8.582750 -18.024900   8.706390  -4.513400  -0.855337  41.370100  34.326600 -54.485400 -31.045100  -0.001202  -0.000658 -10.522600   0.003314  -0.001087 -34.451100  -1.243900   1.812280 -28.203300   0.005446  -0.003052 -19.742300  -0.003532  -0.003038 -30.003700  -3.744220   6.443040 -45.322300  -0.001236  -0.001922 -30.184500  -0.003080   0.004689 -28.197500  -3.994930   7.401240 -35.682200  -0.012310  -0.009660 -23.764300  -0.013201  -0.005095 -32.305000  -4.516750   7.096400 -48.878100  -0.000450  -0.011945 -32.552700  -0.000367  -0.009610   9.569530   4.403310   6.444300  66.619600   1.536130  -0.959423   3.101530   1.467120  18.848500 -17.893500  -7.079450   6.917370 -41.164900  39.428500  80.823400  28.191200   0.004884  -0.002615   9.095610   0.000999  -0.011114  45.522600  -0.001519  -0.001423  37.245900  -0.006821   0.007079  27.186300  -0.000526   0.010655  40.978200  -0.850359  -0.978658  54.377100   0.000000  -0.006711  37.575700   0.002748   0.010207  49.899600  -0.991906  -0.835229  54.301200  -0.000832  -0.006770  39.765400   0.008785   0.008014  53.077400  -5.772080  -4.322380  79.943300   0.010260  -0.001228  53.242200   0.000202   0.009901   2.067780   2.341540  -0.674590   0.462587   1.080710  10.596700  -3.416010  -2.314670  -4.758940   0.000000   0.000000  -0.000000  -1.648130   3.384270  -3.035980   2.958200   0.757541 -16.044200  -0.444454  -3.291030  -3.300850  -0.000000   0.000000   0.000000
 -0.819279  89.513100  -2.830540  -0.194467  -1.114680   2.070520   0.558247   2.114500  -0.479918   1.135370   4.224120  -0.981443  -1.385080   0.587285   0.023304  -2.272070   1.189260   6.053800  -5.704080   2.666290   7.915560 -77.497700   6.090030   1.114510   1.386490   8.519800 -18.007200   8.696760  -4.547480  -0.863860  41.348000  34.248600 -54.441700 -31.012900  -0.001237  -0.000693 -10.506500   0.003369  -0.001109 -34.476100  -1.226810   1.785920 -28.223300   0.005637  -0.003145 -19.756300  -0.003599  -0.003124 -30.019600  -3.744490   6.439430 -45.346000  -0.001252  -0.001838 -30.200400  -0.003172   0.004962 -28.203500  -3.971830   7.359370 -35.717500  -0.012470  -0.009796 -23.787800  -0.013317  -0.005097 -32.336700  -4.493160   7.054280 -48.920700  -0.000298  -0.012113 -32.581100  -0.000353  -0.009739   9.583920   4.368740   6.446180  66.645500   1.603810  -0.982158   3.062390   1.437380  18.859700 -17.835200  -6.995560   6.878700 -41.146000  39.390900  80.766700  28.207900   0.004884  -0.002512   9.103960   0.000993  -0.011129  45.497000  -0.001677  -0.001483  37.224800  -0.006874   0.007091  27.166000  -0.000582   0.010685  40.774800  -0.811436  -0.940704  54.367700   0.000000  -0.006814  37.515400   0.002663   0.010250  49.600100  -0.946311  -0.805438  54.317600  -0.000923  -0.006778  39.705200   0.008768   0.007920  52.942500  -5.715790  -4.301420  79.736100   0.010182  -0.001277  53.104200   0.000000   0.010052   2.071760   2.355020  -0.680353   0.452697   1.066450  10.603800  -3.408650  -2.313540  -4.762930  -0.000000   0.000000   0.000000  -1.651090   3.398390  -3.040940   2.960580   0.748279 -16.051500  -0.437478  -3.291930  -3.293450   0.000000   0.000000   0.000000
